<?xml version="1.0" standalone="no"?>
<!DOCTYPE svg PUBLIC "-//W3C//DTD SVG 20010904//EN"
 "http://www.w3.org/TR/2001/REC-SVG-20010904/DTD/svg10.dtd">
<svg version="1.0" xmlns="http://www.w3.org/2000/svg"
 width="512.000000pt" height="512.000000pt" viewBox="0 0 512.000000 512.000000"
 preserveAspectRatio="xMidYMid meet">
<metadata>
Created by potrace 1.14, written by Peter Selinger 2001-2017
</metadata>
<g transform="translate(0.000000,512.000000) scale(0.100000,-0.100000)"
fill="#000000" stroke="none">
<path d="M3895 5073 c-38 -10 -78 -46 -95 -87 -12 -27 -20 -81 -24 -155 -12
-220 -65 -356 -166 -433 -64 -49 -208 -91 -385 -112 -212 -26 -381 -75 -484
-139 -211 -133 -318 -362 -336 -715 -2 -41 -5 -76 -8 -78 -2 -2 -424 -5 -938
-5 -1046 -1 -1004 2 -1147 -74 -68 -35 -158 -113 -200 -172 -39 -54 -81 -149
-97 -215 -20 -88 -21 -1739 0 -1833 39 -181 171 -341 341 -414 123 -53 12 -51
2229 -48 2236 2 2064 -2 2190 52 135 58 255 190 312 345 l28 75 3 865 c2 605
0 884 -8 930 -32 186 -158 349 -331 430 -126 59 -117 58 -1081 59 -486 0 -905
1 -931 1 l-48 0 2 75 c4 146 39 284 92 362 70 102 171 145 432 183 385 57 535
121 666 283 118 147 177 347 181 617 2 107 -15 150 -71 183 -32 19 -93 29
-126 20z m-2914 -2322 c1 -3 2 -92 3 -196 l1 -191 -197 0 -198 -1 0 197 0 196
195 0 c107 1 196 -2 196 -5z m594 -191 l0 -195 -195 0 -195 0 -2 196 -2 195
197 0 197 -1 0 -195z m590 0 l0 -195 -195 0 -195 0 -2 185 c-2 102 -1 190 1
196 3 8 64 11 198 10 l193 -1 0 -195z m591 1 l-1 -196 -196 -1 -195 -1 1 196
c1 108 3 196 3 197 1 0 89 0 195 0 l194 0 -1 -195z m592 -1 l0 -196 -196 1
-197 0 -1 190 c0 105 0 193 2 196 2 3 91 5 198 5 l194 0 0 -196z m587 0 l0
-195 -195 0 -195 0 -1 190 c0 105 1 193 2 196 2 3 90 5 196 5 l193 -1 0 -195z
m595 0 l0 -197 -195 0 c-132 0 -195 4 -196 11 -1 6 -2 94 -3 197 l-1 185 197
1 198 0 0 -197z m-3349 -414 c0 -20 0 -237 -1 -333 l0 -42 -195 -1 -195 0 0
65 c-1 36 -1 121 -1 190 0 69 0 129 1 133 0 5 88 8 195 8 190 0 195 0 196 -20z
m590 -53 c0 -40 0 -102 0 -138 0 -36 0 -92 0 -125 l-1 -60 -195 0 c-194 1
-195 1 -195 23 -1 50 -1 305 -1 337 l1 36 195 0 195 1 1 -74z m591 58 c2 -9 3
-97 2 -196 l-1 -180 -196 -3 -197 -2 0 198 0 198 194 0 c168 0 195 -2 198 -15z
m593 -171 c0 -102 -1 -190 -3 -197 -3 -9 -55 -12 -198 -13 l-194 0 0 198 0
198 197 0 197 -1 1 -185z m590 -10 l0 -195 -197 -3 -198 -3 0 194 c0 107 2
196 5 198 2 3 91 5 197 5 l193 -1 0 -195z m588 186 c2 -6 3 -94 3 -196 l-1
-185 -197 -2 -196 -2 -1 197 -1 198 195 0 c129 0 195 -3 198 -10z m-3152 -591
c4 -29 4 -352 1 -367 -4 -15 -25 -17 -198 -17 l-194 0 0 193 c0 125 4 196 10
198 27 9 380 3 381 -7z m2956 -185 l-2 -195 -1377 -2 -1376 -2 -1 191 c-1 104
1 193 3 197 2 3 623 6 1380 6 l1375 0 -2 -195z m586 191 c4 0 7 -89 7 -196 l0
-195 -197 3 -198 2 -1 180 c-1 99 0 187 2 195 3 13 32 15 191 14 104 -1 191
-2 196 -3z"/>
</g>
</svg>
